<?xml version="1.0" encoding="UTF-8" standalone="no"?>
<!-- Created with Inkscape (http://www.inkscape.org/) -->

<svg
   version="1.1"
   id="svg2"
   width="6666.6665"
   height="6000"
   viewBox="0 0 6666.6665 6000"
   sodipodi:docname="airtime-login-image.eps"
   xmlns:inkscape="http://www.inkscape.org/namespaces/inkscape"
   xmlns:sodipodi="http://sodipodi.sourceforge.net/DTD/sodipodi-0.dtd"
   xmlns="http://www.w3.org/2000/svg"
   xmlns:svg="http://www.w3.org/2000/svg">
  <defs
     id="defs6" />
  <sodipodi:namedview
     id="namedview4"
     pagecolor="#ffffff"
     bordercolor="#000000"
     borderopacity="0.25"
     inkscape:showpageshadow="2"
     inkscape:pageopacity="0.0"
     inkscape:pagecheckerboard="0"
     inkscape:deskcolor="#d1d1d1" />
  <g
     id="g8"
     inkscape:groupmode="layer"
     inkscape:label="ink_ext_XXXXXX"
     transform="matrix(1.3333333,0,0,-1.3333333,0,6000)">
    <g
       id="g10"
       transform="scale(0.1)">
      <path
         d="m 41759.8,21342.1 c 12.6,-21.2 39.9,-27.6 60.4,-15.3 187.4,111 187.6,350.3 311.8,482.1 16.8,17.7 15.9,45.7 -1.8,62.4 -17.9,16.7 -45.6,16 -62.4,-1.8 -127.9,-135.6 -146.7,-380.3 -292.6,-466.9 -21,-12.4 -27.9,-39.5 -15.4,-60.5"
         style="fill:#000000;fill-opacity:1;fill-rule:nonzero;stroke:none"
         id="path12" />
      <path
         d="m 42060,20696.3 c -23.3,5.4 -47.5,-8.9 -53.2,-32.6 l -1.6,-6.4 c -94.1,-75.9 -152.6,-191.7 -157.4,-312.7 -1,-24.4 18,-44.9 42.4,-45.9 0.6,0 1.1,0 1.7,0 23.7,0 43.2,18.6 44.1,42.4 7.3,183.6 141.4,242.1 152.1,284.2 l 4.4,17.8 c 5.8,23.6 -8.7,47.5 -32.5,53.2"
         style="fill:#000000;fill-opacity:1;fill-rule:nonzero;stroke:none"
         id="path14" />
      <path
         d="m 41989.2,19496.2 c -157,-138.4 -186.3,-160.2 -215.1,-204.3 -27.7,-42.7 -37.8,-91.5 -27.5,-133.8 13.8,-56.5 99.6,-35.9 85.7,20.9 -4.5,18.7 1.2,42.4 15.8,64.8 23.6,36.3 75.2,76.7 199.5,186.2 18.2,16.1 20,43.9 3.9,62.3 -16.2,18.2 -44.1,20.2 -62.3,3.9"
         style="fill:#000000;fill-opacity:1;fill-rule:nonzero;stroke:none"
         id="path16" />
      <path
         d="m 41640.7,18209.2 c -64.7,-89.7 -149.6,-166.1 -245.9,-221 -21.2,-12 -28.6,-38.9 -16.5,-60.1 12.1,-21.3 39.1,-28.5 60.1,-16.5 107.2,61 201.9,146 274,245.9 14.1,19.8 9.7,47.4 -10,61.7 -20,13.9 -47.4,9.9 -61.7,-10"
         style="fill:#000000;fill-opacity:1;fill-rule:nonzero;stroke:none"
         id="path18" />
      <path
         d="m 40837.2,18261.1 c 21,-54.2 103.5,-22.6 82.2,32 -35.7,91.7 -90,178.3 -157.1,250.2 -16.7,17.8 -44.4,18.6 -62.4,2.1 -17.8,-16.6 -18.7,-44.6 -2.1,-62.4 59.5,-63.7 107.7,-140.5 139.4,-221.9"
         style="fill:#000000;fill-opacity:1;fill-rule:nonzero;stroke:none"
         id="path20" />
      <path
         d="m 40859,19442.9 c -20.3,13.2 -47.6,7.9 -61.1,-12.6 -13.4,-20.3 -7.9,-47.6 12.6,-61 84.3,-55.7 151.8,-138 190.1,-231.8 22.1,-53.9 103.9,-20.9 81.8,33.3 -45,110.2 -124.3,206.8 -223.4,272.1"
         style="fill:#000000;fill-opacity:1;fill-rule:nonzero;stroke:none"
         id="path22" />
      <path
         d="m 40937.7,20383.7 c -10.5,22.3 -37.3,31.3 -58.8,21.1 -22,-10.5 -31.5,-36.7 -21,-58.8 l 171.8,-363.1 c 24.5,-52.4 104.9,-15.2 79.8,37.7 l -171.8,363.1"
         style="fill:#000000;fill-opacity:1;fill-rule:nonzero;stroke:none"
         id="path24" />
      <path
         d="m 41095.7,21399.7 c 48.9,-31.9 97,41.8 48.2,73.8 l -310.3,203.2 c -19.9,13.1 -47.6,7.7 -61.1,-12.8 -13.3,-20.3 -7.6,-47.6 12.8,-61 l 310.4,-203.2"
         style="fill:#000000;fill-opacity:1;fill-rule:nonzero;stroke:none"
         id="path26" />
      <path
         d="m 40927,22479.8 c 35.1,-46.3 105.6,7.3 69.9,53.7 l -131.5,171.2 c -14.8,19.4 -42.6,23.1 -61.8,8.2 -19.4,-14.8 -23.1,-42.5 -8.2,-61.8 l 131.6,-171.3"
         style="fill:#000000;fill-opacity:1;fill-rule:nonzero;stroke:none"
         id="path28" />
      <path
         d="m 41646.2,22750.9 146.5,453.2 c 7.5,23.1 -5.3,48 -28.5,55.5 -23.4,7.8 -48,-5.4 -55.5,-28.4 l -146.4,-453.2 c -18,-55.5 66,-82.6 83.9,-27.1"
         style="fill:#000000;fill-opacity:1;fill-rule:nonzero;stroke:none"
         id="path30" />
      <path
         d="m 42809.1,16981.2 c -20.4,12.6 -47.9,5.8 -60.5,-15.1 l -101.6,-169.4 c -12.5,-21 -5.8,-48.1 15.2,-60.5 19.9,-12.2 47.6,-6.4 60.4,15.1 l 101.6,169.5 c 12.6,20.9 5.8,48 -15.1,60.4"
         style="fill:#000000;fill-opacity:1;fill-rule:nonzero;stroke:none"
         id="path32" />
      <path
         d="m 42325.5,16678.9 c -22.4,8.4 -48.1,-2.6 -57,-25.5 -37.7,-99.3 -196.9,-190.5 -176,-341.6 3.1,-22 21.9,-38 43.7,-38 27.2,0 47.4,23.9 43.7,50.1 -13.9,100.9 126.1,180.7 171.1,298 8.6,22.8 -2.7,48.3 -25.5,57"
         style="fill:#000000;fill-opacity:1;fill-rule:nonzero;stroke:none"
         id="path34" />
      <path
         d="m 41579.1,16260.2 c -0.1,0 -0.3,0 -0.6,0 -24.1,0 -43.7,-19.3 -44.1,-43.4 l -5.9,-392.1 c -0.4,-24.4 19.1,-44.4 43.5,-44.7 0.1,0 0.4,0 0.6,0 24.1,0 43.7,19.3 44.1,43.4 l 5.9,392.1 c 0.4,24.4 -19.1,44.4 -43.5,44.7"
         style="fill:#000000;fill-opacity:1;fill-rule:nonzero;stroke:none"
         id="path36" />
      <path
         d="m 41123.4,15753.4 c -24.3,-3.1 -41.4,-25.1 -38.4,-49.3 l 55.1,-446.9 c 2.8,-22.3 21.8,-38.6 43.9,-38.6 26.8,0 47,23.4 43.8,49.5 l -55.2,446.9 c -3,24.1 -24,41.1 -49.2,38.4"
         style="fill:#000000;fill-opacity:1;fill-rule:nonzero;stroke:none"
         id="path38" />
      <path
         d="m 40881.3,15162.4 c -10.1,22.3 -36.5,32 -58.4,21.9 -22.2,-10.1 -32,-36.2 -21.9,-58.3 l 122.9,-271 c 10.3,-22.6 36.8,-31.7 58.3,-21.9 22.2,10.1 32.1,36.2 22,58.4 l -122.9,270.9"
         style="fill:#000000;fill-opacity:1;fill-rule:nonzero;stroke:none"
         id="path40" />
      <path
         d="m 41286.7,14514.7 c -25.5,3.5 -44.9,-18 -45.7,-42.5 -1,-24.3 18.1,-44.8 42.5,-45.7 130,-5 157.3,-15.1 258.4,-96.1 18.6,-14.8 46.5,-12.3 62.1,6.9 15.2,19.1 12.2,46.8 -6.9,62.1 -115.6,92.3 -161.2,109.7 -310.4,115.3"
         style="fill:#000000;fill-opacity:1;fill-rule:nonzero;stroke:none"
         id="path42" />
      <path
         d="m 42003.5,15003.9 c -87.7,45.5 -161.5,8.7 -477.7,-94.4 -23.1,-7.7 -35.8,-32.5 -28.3,-55.7 7.8,-23.7 33.2,-35.6 55.6,-28.3 292.9,93.8 356.8,128 409.5,100.1 21.7,-11.1 48.4,-3 59.6,18.7 11.2,21.7 2.8,48.3 -18.7,59.6"
         style="fill:#000000;fill-opacity:1;fill-rule:nonzero;stroke:none"
         id="path44" />
      <path
         d="m 42592.4,15628.6 c -216.7,-7.5 -426.4,-75.1 -606.5,-195.5 -20.3,-13.6 -25.8,-41 -12.2,-61.2 13.6,-20.5 41.4,-25.5 61.2,-12.2 164.1,109.7 363.1,174 560.4,180.8 24.4,0.8 43.5,21.3 42.6,45.5 -0.7,24.4 -24.6,41.9 -45.5,42.6"
         style="fill:#000000;fill-opacity:1;fill-rule:nonzero;stroke:none"
         id="path46" />
      <path
         d="m 42772.3,15988 -192.5,-56.1 c -23.4,-6.7 -36.8,-31.2 -30.1,-54.6 7.1,-24.2 32.6,-36.8 54.7,-30.1 l 192.5,56 c 23.4,6.8 36.8,31.3 30,54.7 -6.7,23.4 -30.6,37.6 -54.6,30.1"
         style="fill:#000000;fill-opacity:1;fill-rule:nonzero;stroke:none"
         id="path48" />
      <path
         d="m 43260,16510 -192.3,-62.3 c -23.2,-7.6 -35.8,-32.5 -28.3,-55.7 7.7,-23.7 33.2,-35.6 55.6,-28.3 l 192.1,62.3 c 23.3,7.5 36,32.4 28.5,55.5 -7.5,23.2 -32.5,36 -55.6,28.5"
         style="fill:#000000;fill-opacity:1;fill-rule:nonzero;stroke:none"
         id="path50" />
      <path
         d="m 35362.9,13521.9 c 134.9,-20.2 213.1,-32.8 213.1,-32.8 l 85.7,397.2 0.1,0.4 416.6,-62.6 c 327.8,-172.3 763.7,-269.9 1158.3,-196.3 -141.5,-357.7 172.4,-658.6 163.9,-981 -3.7,-107.2 -59.2,-239.6 -174,-276.2 -25.2,-7.6 -42.9,-31.5 -44.1,-58 10.4,-164.3 -49.2,-314 55.5,-317.8 12.7,5.6 62.2,4.7 64.3,61.8 l 6.3,210.6 c 575.9,285.4 -207.8,1064.9 99.6,1402.2 283.7,85.1 393.3,259.5 930.6,206.8 -43.5,-1331.2 109.2,-1691.4 -184.1,-2215.5 -738.6,-1347.9 -2791.8,-816.2 -2791.8,715 0,12.6 0,1199.6 0,1146.2 z m 2157.5,1651.9 c 322.3,182.3 960,51.9 1308.9,-205.5 176.6,-128.7 374.6,-348.1 310.2,-662.1 -93.6,-458.2 -346,-340.9 -674.6,-319 -658.4,103 -829.4,-125.1 -1126.1,-205.5 l -1.2,-1.3 c -302.6,-83.5 -598.8,-47.2 -825.4,13.2 15.6,22.2 -5.8,-46.9 238.2,1172.7 213.7,7.6 496.8,53 770,207.5 z m 944.5,712.4 c 215.7,170.3 389.7,377.1 517,609.1 116,-16.1 247.5,-11.4 389.1,20.5 327.1,-941.8 473.1,-2232.9 196,-3996.4 -0.4,-2.7 0.3,-5 0.3,-7.6 h -1102.4 v 1349.3 c 388.3,-35.3 690.4,-106.4 798.2,419.9 60.5,296.3 -66.8,576.3 -359.3,789.4 -128.7,94.6 -280,169 -438.9,221.9 z m 710,1114.8 c 59.2,-125.6 115,-259.3 166.9,-400.8 -94,-20.7 -190.4,-33.1 -315.7,-20.4 65.5,133.7 116,274.9 148.8,421.2 z m -1510.7,2402.2 c 0.3,4 0.4,8.1 0.7,12.1 1357,99.5 2409.7,-286.9 2416.6,-1636.3 0,-1083.7 -582.8,-1106.1 -654.9,-1155.1 -68.4,187.3 -143.2,361.9 -224,522.1 187.7,1153.6 -633.4,2059.3 -1538.4,2257.2 z m -7569.8,4911.6 c 358,54.4 333,34.1 360.7,61.7 43.6,43.8 2.7,685.9 1.6,703.9 299.1,56.3 499.8,317.7 540.4,375.3 24.7,35.2 -22.2,76.6 -55.4,46.7 -379.5,-357.5 -842.5,-275.7 -1049,7.8 -306.5,422.4 -140,1248.4 -75.7,1513.2 333,-44.5 802.3,89.8 1121,408.5 0,-140.8 237.5,-901.6 1140,-901.6 -50.2,-501.4 -321.6,-467.8 -334.2,-480.4 -30.3,2.5 -55.5,-15.1 -64.3,-41.6 -244.1,-710.7 -26,-1576.5 2.5,-1601.5 24.5,-27.9 35.8,-13.1 268.6,-35.3 -290.4,-871.3 -1514.2,-907.3 -1856.2,-56.7 z m -3585,-6240.7 c -170.8,-63 -328.6,-123.8 -530.9,-264.2 -193.1,362.3 -573.8,609.5 -1011.7,609.5 -633.9,0 -1149.2,-515.4 -1149.2,-1149.3 0,-777 764.2,-1334.4 1508.6,-1088.1 90.3,-559.5 238.5,-968 1456.8,-1389 0,-524.2 0,-1944.1 0,-2466.5 0,-793.2 -639.3,-1437.6 -1429.9,-1446.4 h -16.4 c -798.2,0 -1446.4,648.2 -1446.4,1446.4 0,772.4 0,2690.9 0,3447.5 0,20.2 -10.1,37.9 -25.2,50.5 -456.5,348 -717.5,875.1 -717.5,1446.3 0,1437.7 1614.6,2323.8 2815.8,1513.2 107.2,-228.2 300.1,-467.8 546,-709.9 z M 29785.5,7910.4 C 29619,7607.8 29313.9,7396 28968.3,7343 c -600.2,-92.1 -1013.8,-64.3 -1161.3,82 -22.7,21.4 -22.7,36.6 -22.7,42.9 2.5,63 124.8,170.2 243.4,274.8 923.4,807.4 267.6,957.2 1167.6,1675.9 122.4,90.8 233.3,151.3 305.2,186.6 70,-419.8 247.9,-809.4 651.9,-931.9 -103.3,-241 -241,-532.9 -366.9,-762.9 z m 10139.6,13873.5 c -273.2,633.5 -457.4,1874.5 65.6,2307.7 497.8,408.6 1959.1,195.1 2775.5,-1054.2 803.9,-1229.9 839.6,-3298.1 -369.5,-5023.8 -321.9,-462.2 -1106.4,-1263.7 -1485.6,-1404.5 944.1,2203.7 468.5,5401.5 463.5,5433.6 -3.7,24.2 -26.6,41.3 -50.3,37 -24.1,-3.7 -40.6,-26.3 -36.9,-50.3 235.5,-1536.3 194.3,-3890.9 -483.7,-5448.4 -324.9,-39.1 -557.9,496.9 -661.7,804.6 55.7,340.1 34.4,897.4 -122.3,1192.9 161.1,1333.9 708.3,1308.8 -94.6,3205.4 z m 5,-9272.1 h -275.2 c 277.3,1771.9 132.4,3075.1 -197,4027.8 291.2,78.4 559.9,356.2 650.1,684.6 323.1,-810.9 643.7,-723 656.8,-733.6 -784.8,-1813 -1143.7,-2999.7 -834.7,-3978.8 z M 4773.98,25355.1 c 0,-94.2 -76.32,-170.5 -170.5,-170.5 -94.16,0 -170.51,76.3 -170.51,170.5 v 3933.7 c 0,94.2 76.35,170.5 170.51,170.5 94.18,0 170.5,-76.3 170.5,-170.5 z M 25451.8,31833.5 H 12422.6 c -34.8,0 -63,28.2 -63,63.1 0,34.9 28.2,63 63,63 h 13029.2 c 34.8,0 63,-28.1 63,-63 0,-34.9 -28.2,-63.1 -63,-63.1 z M 9491.46,31391.2 c -279.78,0 -505.94,226.1 -505.94,504.9 0,279.9 226.16,506 505.94,506 278.86,0 505.94,-226.1 505.94,-506 0,-278.8 -227.08,-504.9 -505.94,-504.9 z m -1626.54,0 c -279.79,0 -505.94,226.1 -505.94,504.9 0,279.9 226.15,506 505.94,506 278.85,0 505.93,-226.1 505.93,-506 0,-278.8 -227.08,-504.9 -505.93,-504.9 z m -1626.53,0 c -279.82,0 -505.94,226.1 -505.94,504.9 0,279.9 226.12,506 505.94,506 278.85,0 505.94,-226.1 505.94,-506 0,-278.8 -227.09,-504.9 -505.94,-504.9 z M 43644.6,17039 c -8.6,22.9 -34.2,34.2 -56.7,26 -25.7,-9.6 -2067.2,-799 -2813.4,-3013.2 -1170,1548.4 1488.6,4066 4432,3026.7 -850.4,-340.1 -1297.7,-882.3 -1453.1,-1433.1 -143,-221.6 -274.1,-1114.1 -1276.2,-1594.1 -697.8,-334.7 -1468,-221.7 -1634.7,-73.8 719.7,2209.3 2750.8,2995.2 2776.1,3004.7 22.9,8.5 34.5,34 26,56.8 z M 46437,9388.4 h -4816.9 l 422.5,2272.2 h -3587.8 l 422.4,-2272.2 h -1529.1 l 4.2,1453.7 c 12.9,7.4 623.1,168.5 944.9,818.6 h 4051.6 l 192.9,851.1 h -1946.2 c 14.4,508.8 94.3,965.4 218.9,1375 212,-157.5 1008,-247.4 1701,84.9 948.8,454.4 1187.9,1346 1199,1364.8 95.6,276.7 105.5,220.9 131.8,308.3 263.9,334.9 866.2,52.9 1280.6,-76.3 818.6,-246.5 1247.9,94.2 1303.8,464 83.4,545.6 -546.9,862.1 -1059.2,1062.7 -4.5,11.1 -11.7,20.9 -23.4,25.4 -2222.1,851.2 -4435,-344.2 -4858.5,-1724.3 -169.8,-550.1 -32.8,-1125.7 252.1,-1442.1 -134.1,-427.7 -219.7,-907 -234.5,-1442.4 h -483.3 c -318.5,968 44.6,2154.6 842.7,3992.3 433.9,100.8 1252.9,959.6 1603.3,1457.7 1221.4,1748.8 1201.4,3855 369.5,5123.5 -850.9,1301.4 -2369.6,1514.7 -2905.3,1073.1 -559.5,-461.9 -384.8,-1724.1 -89.5,-2409.7 729.4,-1746.5 406.1,-1162 103.4,-3041.6 -467.9,746.1 -1402.4,856.4 -2277.4,797.4 122.2,1852.7 -7.2,3665.4 -813.4,4429.4 -770.4,730.2 -2341.6,1171.5 -4081.8,1325.3 17.6,80.8 1.3,167.8 -63.1,259.8 -403.5,576.3 727.6,2059.2 -344.2,2810.8 -567.5,395.9 -1136.2,321.5 -1544.7,163.9 -182.9,20.2 -481.7,272.4 -1071.9,-90.8 -1070.6,-658.2 -200.5,-2307.6 -552.3,-2883.9 -74.4,-122.3 -53,-238.3 31.5,-338 -537.2,-73.1 -1049.1,-177.7 -1514.4,-311.4 -736.4,-221.9 -1471.6,-559.9 -1868.8,-935.7 -848.7,-804.5 -948.3,-2770.4 -793.2,-4721.1 -1110.3,49.5 -2032.7,-833.7 -2032.7,-1942 0,-600.2 269.8,-1155 742.7,-1527 v -962.2 H 5202.34 V 30199.4 H 27590.1 v -5367.6 c 41.6,13.8 83.2,26.5 126.1,37.8 v 8664.3 c 0,34.1 -27.8,63.1 -63.1,63.1 -697.4,-0.1 -18613.78,-2.5 -23609.51,-3.2 -32.65,0 -60.46,-26.6 -60.46,-60.5 V 14718.4 c 0,-33.8 27.81,-60.4 60.46,-60.4 16161.01,-2 19679.31,-2.5 19720.61,-2.5 v -2329 c 0,-868.3 715.1,-1601.2 1626.7,-1570.2 V 9388.4 h -16804 c 104.61,188.8 487.01,741.3 1375.12,717.4 0,0 -645.76,433.7 -1474.68,-67.5 0,0 443.38,636.1 1166.24,800 0,0 -790.34,366.2 -1349.35,-453 0,0 221.69,1060.2 1224.06,1387.9 0,0 -1127.67,292.3 -1667.43,-1155 0,0 246.77,1425.4 -742.14,1848.9 0,0 366.24,-1066.6 289.14,-1848.9 0,0 -194.3,1094.4 -1281.9,1222.5 0,0 1060.21,-1214.5 1089.13,-1648.2 0,0 -717.05,1069.2 -1686.7,1089.1 0,0 1168.11,-794.5 1320.46,-1445.7 0,0 -771.07,385.5 -1185.53,96.4 0,0 1121.49,-181.4 1323.61,-543.9 H 3563.05 c -34.05,0 -63.05,-29 -63.05,-63.1 0,-35.3 29,-63 63.05,-63 H 28830.9 c -616.2,-678.4 -28.6,-672.9 -885.2,-1425 -158.9,-138.7 -283.8,-247.2 -287.5,-365.7 -1.3,-50.4 18.9,-97.1 60.5,-137.4 116,-113.5 332.9,-171.5 645.6,-171.5 641.7,0 1223.3,125.6 1530.9,686 v 1.2 c 187.6,341.6 399.2,826.2 406,853.7 l 451.5,495.6 c 26.4,21.4 31.5,61.8 11.3,89.5 61.6,-31.8 -891.4,460.5 -1559.9,805.8 310.8,651.2 1141.1,2415.1 1350.6,2894 -4963.3,10.3 -3292.4,6.8 -3645.6,7.6 v 1189.1 c 2163.7,-45.4 1096.2,91.9 4068,-97.1 377.8,904.9 713.8,1665 1194.2,2529.5 -199.3,61.8 -392.2,123.6 -575,185.4 v 1.3 c -7.6,12.6 -101.7,170.2 -94.2,157.6 h 867.2 c 1.2,1.2 2.5,3.8 2.5,5 127.3,216.6 330.2,532.9 510.7,780.6 h -3474.1 c -553,212.4 -1125.1,366.7 -1659.7,422.2 -58.7,781 -192.6,2563.9 -289.8,3860.2 1605.1,0 5859.5,0 7530.7,0 l -247.1,-3291.3 c -180.8,26.1 -313.7,23.3 -372,25.2 -708.4,0 -1491,-1184.2 -1851.2,-1796.9 0,-4.2 -629.5,-992.3 -1409.8,-2886.4 -484.5,-1200.3 -692.7,-1633.5 -1776.7,-3923 -21.7,11 176.7,-91.4 1707.4,-881.4 413.5,689.2 1919.3,2976.9 2569.9,3720 537.6,652.4 3599.1,3310.9 2245.8,5139.8 -130.3,218 -488.4,488.8 -988.6,582.5 l 253.5,3370.7 c 2.5,33 -23.3,66.8 -63.1,66.8 h -3774.2 v 885.3 c 0,35.3 -27.7,63 -63,63 -35.3,0 -63.1,-27.7 -63.1,-63 v -885.3 c -1658.5,0 -2575.4,0 -3766.6,0 -40.3,0 -65.5,-34.3 -63,-66.8 26.8,-399.3 -97.2,1446.7 262.3,-3905.7 -336.6,22.6 -655.6,3.1 -942,-69.9 -289.2,276.6 -587.7,606.4 -651.6,999.9 -164.3,1078 817.5,3259.1 1581.7,4167.3 -26,-91.6 -37.9,-192 -18.8,-293.8 15.4,-82.2 139.2,-58.7 123.9,23.1 -162.3,866 1398,1220.5 2272.4,1319.9 346.2,-1041.4 1844.2,-1000.4 2131.1,61.8 851.2,-44.7 1614.5,-173.9 2036.8,-390.4 57.1,-47.7 469.8,-408 484.3,-879 2.7,-83.7 128.5,-80.1 126.1,4 -6.3,204.8 -77.2,387.9 -165.3,539.2 987.1,-952.5 2072.4,-3278.9 1891.7,-4495.7 -66.7,-394.5 -242.1,-631.5 -531.3,-930.5 27.7,-32.8 51.6,-68.1 73.1,-103.4 337,345.9 549.6,644.2 590.1,1072.6 1943,732.2 3505.1,-1908.9 1771.7,-3241.5 -16.4,-11.4 -25.2,-30.3 -25.2,-50.5 v -588.9 c -899.8,232 -817.4,-237.2 -1664.2,-236.3 l -719.1,166.8 v 0.2 l 74.4,348 c 0,0 -47.9,10.1 -134.9,30.3 -280,-555.2 -777.6,-1264.8 -1486.7,-1968.4 330.4,-49.2 620.4,-93.3 828.5,-126.1 v -483 h -1408.6 c -640.1,-681.8 -2135,-3003.8 -2631.6,-3796.8 1696.8,0 13711.4,0 15240.4,0 35.2,0 63,27.7 63,63 0,34.1 -27.8,63.1 -63,63.1"
         style="fill:#000000;fill-opacity:1;fill-rule:nonzero;stroke:none"
         id="path52" />
      <path
         d="m 37231.7,16375.5 c 634.2,0 1147.5,513.3 1147.5,1146.3 0,1299.6 -1833.1,1595 -2238.3,355.6 124.4,-294.5 185.1,-650.1 147.5,-1007.6 208.1,-298.8 553.6,-494.3 943.3,-494.3"
         style="fill:#000000;fill-opacity:1;fill-rule:nonzero;stroke:none"
         id="path54" />
      <path
         d="m 30669.9,19697 c 0,-261.6 212.1,-473.6 473.6,-473.6 260.6,0 472.7,212 472.7,473.6 0,260.6 -212.1,472.7 -472.7,472.7 -261.5,0 -473.6,-212.1 -473.6,-472.7"
         style="fill:#000000;fill-opacity:1;fill-rule:nonzero;stroke:none"
         id="path56" />
      <path
         d="m 24947,13678.9 c 109.6,-33.5 171.2,-163.1 175.4,-273.6 10,-260.3 -208.6,-521.8 -199,-818.5 4.5,-137 74.8,-304.5 218.3,-374.3 l 5.8,-211.6 c 1,-34.2 29.1,-61.3 63,-61.3 0.7,0 1.2,0 1.8,0 34.8,1 62.3,30 61.3,64.8 -17.5,209.8 20.8,288.4 -50.7,311.2 -114.2,36.3 -169.9,168.3 -173.4,275.3 -9.5,296.2 437.2,882.4 21.8,1166.6 217,228.7 595.6,653.8 411.5,906.5 -55.3,75.6 -150.2,116.8 -264.7,117.9 -391,-6.9 -312.2,-212.4 -211.7,-177.2 124.6,43.4 293.7,95.9 374.4,-15 130.4,-178.9 -303.8,-650.1 -459.9,-805.9 -33.4,-33.4 -19.5,-90.9 26.1,-104.9"
         style="fill:#000000;fill-opacity:1;fill-rule:nonzero;stroke:none"
         id="path58" />
      <path
         d="m 28357.4,21509.4 c -34.9,0 -63.1,-28.2 -63.1,-63.1 0,-34.8 28.2,-63 63.1,-63 H 30285 c 34.8,0 63,28.2 63,63 0,34.9 -28.2,63.1 -63,63.1 h -1927.6"
         style="fill:#000000;fill-opacity:1;fill-rule:nonzero;stroke:none"
         id="path60" />
      <path
         d="m 30315.9,25965.7 c 23.1,7.5 35.9,32.3 28.4,55.6 -7.5,23.1 -31.9,35.9 -55.5,28.4 -141.1,-45.4 -207.5,-3.7 -121,49.9 174.9,107.9 157.9,546.6 155.5,596.2 -1.4,24.6 -23.6,42.8 -46.4,41.9 -24.3,-1.2 -43.1,-21.9 -41.8,-46.3 8.5,-167.5 -14.9,-455.9 -113.6,-516.7 -152.3,-93.9 -91.6,-301.2 194.4,-209"
         style="fill:#000000;fill-opacity:1;fill-rule:nonzero;stroke:none"
         id="path62" />
      <path
         d="m 30479.8,26680.9 c -19.7,-14 -24.2,-41.2 -10.3,-61 14,-19.7 41.3,-24.7 61.4,-10.9 8.1,5.7 80.4,51.5 149.6,-19.8 16.7,-17.2 44.8,-18 62.4,-0.9 17.5,17 17.9,45 0.9,62.5 -99.5,102.4 -216.1,64.4 -264,30.1"
         style="fill:#000000;fill-opacity:1;fill-rule:nonzero;stroke:none"
         id="path64" />
      <path
         d="m 30586.1,26533.9 c -39.2,0.4 -71.1,-31.5 -71.5,-69.9 -0.4,-39.2 30.8,-71.1 70,-71.5 39.2,-0.3 71,30.9 71.4,70.1 0.4,38.4 -30.8,70.9 -69.9,71.3"
         style="fill:#000000;fill-opacity:1;fill-rule:nonzero;stroke:none"
         id="path66" />
      <path
         d="m 30291.2,25744.3 c -122.5,-97.6 -234.8,-9.6 -239.6,-5.7 -18.6,15.6 -46.4,12.7 -62,-5.9 -15.5,-18.7 -12.9,-46.5 5.8,-62.1 91.1,-75.5 234.6,-87.3 350.8,4.5 19,15.2 22.2,43 7.1,62.1 -15.4,19.1 -43.1,22.3 -62.1,7.1"
         style="fill:#000000;fill-opacity:1;fill-rule:nonzero;stroke:none"
         id="path68" />
      <path
         d="m 30053.1,26646.5 c 16.9,-17.4 45,-17.8 62.4,-0.9 17.5,17 17.9,44.8 0.9,62.4 -99.2,102.2 -216,64.6 -263.9,30.3 -19.9,-14.1 -24.4,-41.7 -10.1,-61.5 14.3,-19.9 42,-24.4 61.5,-10.1 3.2,2.1 77.6,53.7 149.2,-20.2"
         style="fill:#000000;fill-opacity:1;fill-rule:nonzero;stroke:none"
         id="path70" />
      <path
         d="m 30028.7,26519.9 c 0.4,38.4 -30.8,71 -70,71.4 -39.2,0.4 -71,-31.6 -71.4,-70 -0.4,-39.2 30.8,-71 70,-71.4 39.2,-0.4 71,30.8 71.4,70"
         style="fill:#000000;fill-opacity:1;fill-rule:nonzero;stroke:none"
         id="path72" />
      <path
         d="m 11601.9,26880.9 c 0,111 124.8,176.5 215.6,112.2 l 739,-518.2 c 78.2,-54.3 78.2,-170.3 0,-224.5 l -739,-518.3 c -90.8,-64.3 -215.6,1.3 -215.6,112.3 z m 348,-2383.3 c 1030.3,0 1866.3,834.8 1866.3,1866.3 0,1028.9 -836,1863.7 -1866.3,1863.7 -1029,0 -1865,-834.8 -1865,-1863.7 0,-1031.5 836,-1866.3 1865,-1866.3"
         style="fill:#000000;fill-opacity:1;fill-rule:nonzero;stroke:none"
         id="path74" />
      <path
         d="M 17621.5,29227.6 V 23331.3 H 6280.08 v 5896.3 z m -1331,-6876.3 c 34.8,0 63,-28.2 63,-63 0,-34.9 -28.2,-63.1 -63,-63.1 h -5704.6 v -223 c 0,-34.8 -28.2,-63 -63,-63 -34.9,0 -63.1,28.2 -63.1,63 v 223 c -777.13,23.7 -923.79,-52.7 -923.79,63.1 0,115.5 144.81,39.2 923.79,63 v 223.2 c 0,34.8 28.2,63 63.1,63 34.8,0 63,-28.2 63,-63 v -223.2 z m -9314.06,-509.1 v 892.2 c 0,95.4 107.45,151.3 185.58,96.5 l 636.36,-446.1 c 66.96,-46.9 66.96,-146.1 0,-193 l -636.36,-446.2 c -78.12,-54.7 -185.58,1.2 -185.58,96.6 z m 10779.76,-691.8 c -1.7,1571.1 -6.2,5863.6 -8.6,8140.2 0,34.9 -28.2,63.1 -63,63.1 H 6217.02 c -34.84,0 -63.05,-28.2 -63.05,-63.1 -1.59,-1435.3 -6.25,-5637.8 -9.02,-8140.2 0,-40.2 33.04,-71.8 71.85,-71.8 h 11467.5 c 40.2,0 71.9,31.6 71.9,71.8"
         style="fill:#000000;fill-opacity:1;fill-rule:nonzero;stroke:none"
         id="path76" />
      <path
         d="m 10655.4,19739.7 v -2782.6 l -760.73,1137.6 c -25.93,38.9 -89.62,38.9 -114.46,0 l -637,-953.3 -1044.05,1560 c -26.98,39 -89.59,39 -114.43,0 L 6708.98,16794 v 2945.7 z m 63,126.1 H 6645.94 c -34.86,0 -63.06,-28.2 -63.06,-63.1 v -3829.5 c 0,-34.9 28.2,-63.1 63.06,-63.1 h 4072.46 c 34.9,0 63.1,28.2 63.1,63.1 v 3829.5 c 0,34.9 -28.2,63.1 -63.1,63.1"
         style="fill:#000000;fill-opacity:1;fill-rule:nonzero;stroke:none"
         id="path78" />
      <path
         d="m 9182.52,18271 c 200.36,0 362.89,162.5 362.89,361.6 0,200.3 -162.53,362.9 -362.89,362.9 -200.32,0 -361.58,-162.6 -361.58,-362.9 0,-199.1 161.26,-361.6 361.58,-361.6"
         style="fill:#000000;fill-opacity:1;fill-rule:nonzero;stroke:none"
         id="path80" />
      <path
         d="m 21633.3,19312 h -9524.9 c -34.9,0 -63.1,-28.2 -63.1,-63.1 0,-34.8 28.2,-63 63.1,-63 h 9524.9 c 34.9,0 63.1,28.2 63.1,63 0,34.9 -28.2,63.1 -63.1,63.1"
         style="fill:#000000;fill-opacity:1;fill-rule:nonzero;stroke:none"
         id="path82" />
      <path
         d="m 21633.3,18404.7 h -9524.9 c -34.9,0 -63.1,-28.2 -63.1,-63.1 0,-34.8 28.2,-63 63.1,-63 h 9524.9 c 34.9,0 63.1,28.2 63.1,63 0,34.9 -28.2,63.1 -63.1,63.1"
         style="fill:#000000;fill-opacity:1;fill-rule:nonzero;stroke:none"
         id="path84" />
      <path
         d="m 21633.3,17497.3 h -9524.9 c -34.9,0 -63.1,-28.2 -63.1,-63 0,-34.9 28.2,-63.1 63.1,-63.1 h 9524.9 c 34.9,0 63.1,28.2 63.1,63.1 0,34.8 -28.2,63 -63.1,63"
         style="fill:#000000;fill-opacity:1;fill-rule:nonzero;stroke:none"
         id="path86" />
      <path
         d="m 21633.3,16590 h -9524.9 c -34.9,0 -63.1,-28.2 -63.1,-63 0,-34.9 28.2,-63.1 63.1,-63.1 h 9524.9 c 34.9,0 63.1,28.2 63.1,63.1 0,34.8 -28.2,63 -63.1,63"
         style="fill:#000000;fill-opacity:1;fill-rule:nonzero;stroke:none"
         id="path88" />
      <path
         d="m 36761.6,28734.6 c 0,987.1 794.3,1790.9 1777.3,1809.1 65.4,-33.7 1260.2,41.9 1716,-1172.7 400.7,-1010.5 -234.9,-2148.5 -1256.6,-2383.6 -20.7,-4.4 -36.9,-17.7 -47.2,-33.9 l -385,-642.9 -381.4,635.6 c -8.8,14.5 -23,25 -39.3,28.9 -814.8,196 -1383.8,919.6 -1383.8,1759.5 z m 1328.4,-1875.7 409.7,-682.8 c 1.1,-42.6 33.6,-72.6 72.8,-72.6 h 539.2 c 26.5,0 50.1,13.3 63.4,35.4 l 425.7,711.5 c 1081.6,270.5 1758.9,1473.9 1331.8,2573.7 -279.9,746.9 -978.2,1240.4 -1770.8,1256.6 -611,-3.8 -590.5,13.1 -628.5,-11.1 -1049.9,-21.3 -1897.8,-880.2 -1897.8,-1935 0,-889.6 596.8,-1657.1 1454.5,-1875.7"
         style="fill:#000000;fill-opacity:1;fill-rule:nonzero;stroke:none"
         id="path90" />
      <path
         d="m 39442.4,28026.7 c -61.1,425.9 -426.6,753.3 -869.4,753.3 -720.3,0 -1030.6,-848 -790.8,-848 h 1581.1 c 50.1,0 86.2,45.1 79.1,94.7"
         style="fill:#000000;fill-opacity:1;fill-rule:nonzero;stroke:none"
         id="path92" />
      <path
         d="m 38573,28888.6 c 246.3,0 445.4,199.1 445.4,445.4 0,246.4 -199.1,445.5 -445.4,445.5 -246.4,0 -445.5,-199.1 -445.5,-445.5 0,-246.3 199.1,-445.4 445.5,-445.4"
         style="fill:#000000;fill-opacity:1;fill-rule:nonzero;stroke:none"
         id="path94" />
      <path
         d="m 21918.7,23907.7 c -368,0 -664.2,299.2 -664.2,664.2 0,368 296.2,664.1 664.2,664.1 364.9,0 664.1,-296.1 664.1,-664.1 0,-365 -299.2,-664.2 -664.1,-664.2 z m 1693.9,883 -285,50.7 c -37.4,197.6 -113.9,381.1 -223.2,541.3 l 165.1,236.4 c 11.1,16 9.2,37.6 -4.6,51.4 l -251.2,251.1 c -13.7,13.8 -35.3,15.7 -51.3,4.5 l -235.9,-164.6 c -160.2,109.6 -344,185.8 -541.8,223 l -50.7,284.8 c -3.4,19.1 -20,33.1 -39.5,33.1 h -355.2 c -19.4,0 -36.1,-14 -39.5,-33.1 l -50.7,-285.1 c -197.3,-37.6 -380.5,-114.2 -540.5,-223.6 l -237.2,165.5 c -15.9,11.2 -37.5,9.3 -51.3,-4.5 l -251.2,-251.1 c -13.7,-13.8 -15.6,-35.4 -4.5,-51.4 l 165.5,-237.1 c -109.3,-160 -186,-343.3 -223.5,-540.5 l -285.1,-50.8 c -19.2,-3.4 -33.1,-20 -33.1,-39.5 V 24396 c 0,-19.5 13.9,-36.1 33.1,-39.5 l 284.7,-50.6 c 37.3,-197.9 113.5,-381.7 223,-541.9 l -164.6,-235.9 c -11.1,-15.9 -9.2,-37.5 4.5,-51.3 l 251.2,-251.2 c 13.7,-13.7 35.4,-15.6 51.3,-4.5 l 236.4,165 c 160.2,-109.2 343.7,-185.7 541.3,-223.2 l 50.7,-284.9 c 3.4,-19.1 20.1,-33.1 39.5,-33.1 h 355.2 c 19.5,0 36.1,14 39.5,33.1 l 50.6,284.6 c 198.2,37.1 382.3,113.2 542.6,222.6 l 235.2,-164.1 c 16,-11.1 37.6,-9.2 51.3,4.5 l 251.2,251.2 c 13.8,13.8 15.7,35.4 4.6,51.3 l -164.2,235.2 c 109.4,160.4 185.6,344.4 222.7,542.6 l 284.6,50.6 c 19.1,3.4 33,20 33,39.5 v 355.2 c 0,19.5 -13.9,36.1 -33,39.5"
         style="fill:#000000;fill-opacity:1;fill-rule:nonzero;stroke:none"
         id="path96" />
      <path
         d="m 24494.8,25783.3 c -280.3,0 -505.9,227.8 -505.9,505.8 0,280.3 225.6,505.9 505.9,505.9 278,0 505.8,-225.6 505.8,-505.9 0,-278 -227.8,-505.8 -505.8,-505.8 z m 1290.1,672.5 -217,38.6 c -28.5,150.5 -86.8,290.3 -170,412.3 l 125.7,180 c 8.5,12.2 7,28.6 -3.4,39.1 l -191.4,191.3 c -10.4,10.5 -26.9,12 -39,3.5 l -179.7,-125.4 c -122,83.4 -262,141.5 -412.7,169.8 l -38.6,216.9 c -2.6,14.6 -15.3,25.2 -30.1,25.2 h -270.5 c -14.8,0 -27.5,-10.6 -30.1,-25.2 l -38.6,-217.1 c -150.3,-28.7 -289.9,-87 -411.7,-170.3 l -180.6,126.1 c -12.2,8.5 -28.7,7 -39.1,-3.5 l -191.3,-191.3 c -10.5,-10.5 -12,-26.9 -3.5,-39.1 l 126.1,-180.6 c -83.3,-121.8 -141.7,-261.4 -170.3,-411.7 l -217.1,-38.6 c -14.6,-2.6 -25.2,-15.3 -25.2,-30.1 v -270.5 c 0,-14.9 10.6,-27.5 25.2,-30.1 l 216.9,-38.6 c 28.3,-150.7 86.4,-290.7 169.8,-412.7 l -125.4,-179.7 c -8.5,-12.1 -7,-28.6 3.5,-39.1 l 191.3,-191.3 c 10.4,-10.4 26.9,-11.9 39,-3.4 l 180.1,125.7 c 122,-83.2 261.8,-141.5 412.3,-170 l 38.6,-217 c 2.6,-14.6 15.3,-25.3 30.1,-25.3 h 270.5 c 14.8,0 27.5,10.7 30.1,25.3 l 38.6,216.7 c 150.9,28.3 291.1,86.3 413.2,169.6 l 179.2,-125 c 12.1,-8.5 28.6,-7 39,3.4 l 191.3,191.3 c 10.5,10.5 12,27 3.5,39.1 l -125,179.1 c 83.3,122.2 141.3,262.4 169.6,413.3 l 216.7,38.6 c 14.6,2.6 25.2,15.2 25.2,30.1 v 270.5 c 0,14.8 -10.6,27.5 -25.2,30.1"
         style="fill:#000000;fill-opacity:1;fill-rule:nonzero;stroke:none"
         id="path98" />
      <path
         d="m 22474.3,27941.6 c 216.6,0 394.2,-175.8 394.2,-394.1 0,-216.7 -177.6,-394.3 -394.2,-394.3 -218.4,0 -394.2,177.6 -394.2,394.3 0,218.3 175.8,394.1 394.2,394.1 z m -1007.5,-522 169,-30 c 22.1,-117.5 67.4,-226.6 132.4,-321.7 l -97.7,-140 c -6.6,-9.4 -5.5,-22.3 2.7,-30.4 l 149.1,-149.1 c 8.1,-8.2 21,-9.3 30.4,-2.7 l 140.3,97.9 c 95.1,-64.8 204,-110.2 321.3,-132.5 l 30.1,-169.1 c 2,-11.3 11.9,-19.6 23.4,-19.6 h 210.9 c 11.5,0 21.4,8.3 23.4,19.6 l 30.1,168.9 c 117.6,22.1 226.8,67.3 322,132.2 l 139.6,-97.4 c 9.5,-6.6 22.3,-5.5 30.4,2.7 l 149.1,149.1 c 8.2,8.1 9.3,21 2.7,30.4 l -97.4,139.6 c 65,95.2 110.2,204.4 132.2,322.1 l 168.9,30 c 11.4,2 19.6,11.9 19.6,23.4 v 210.9 c 0,11.5 -8.2,21.4 -19.6,23.4 l -169.1,30.1 c -22.2,117.3 -67.7,226.2 -132.5,321.3 l 97.9,140.3 c 6.6,9.5 5.5,22.3 -2.7,30.5 l -149.1,149.1 c -8.1,8.1 -20.9,9.2 -30.4,2.6 l -140,-97.7 c -95.1,65 -204.2,110.3 -321.6,132.4 l -30.1,169 c -2,11.4 -11.9,19.6 -23.4,19.6 h -210.9 c -11.5,0 -21.4,-8.2 -23.4,-19.6 l -30.1,-169.2 c -117.1,-22.3 -225.9,-67.8 -320.8,-132.7 l -140.8,98.2 c -9.4,6.6 -22.3,5.5 -30.4,-2.6 l -149.1,-149.1 c -8.2,-8.2 -9.3,-21 -2.7,-30.5 l 98.2,-140.8 c -64.9,-94.9 -110.3,-203.7 -132.7,-320.8 l -169.2,-30.1 c -11.3,-2 -19.6,-11.9 -19.6,-23.4 V 27443 c 0,-11.5 8.3,-21.4 19.6,-23.4"
         style="fill:#000000;fill-opacity:1;fill-rule:nonzero;stroke:none"
         id="path100" />
      <path
         d="m 32645.1,33881.8 c 0,-703 -476.2,-1308.6 -1157.9,-1472.7 -46.4,-11.1 -23.9,-16.2 -357.5,-559.1 l -318.3,531.5 c -8.8,14.7 -23.2,25.2 -39.9,29.1 -140.5,32.5 -275.7,86.5 -401.9,160.6 -1317.1,764.3 -805,2792.9 730.9,2825.2 682.3,71.8 1544.6,-568.9 1544.6,-1514.6 z m -2792.4,-1418.6 c 129.1,-75.6 266.8,-132.7 410.8,-168.7 l 358.6,-599.4 c 11.2,-18.6 31,-29.8 53.4,-29.8 h 450.6 c 1.3,-0.1 2.3,-0.9 3.6,-0.9 22.2,0 42.6,11.5 54.1,30.6 l 358.8,598 c 724.7,186.7 1228.6,836.3 1228.6,1588.8 0,1040.5 -959.9,1722 -1676.5,1640.4 l -461.4,-1.1 c -667.7,-13.7 -1255.9,-429.4 -1491.7,-1058.6 -289.5,-745.7 21,-1599.1 711.1,-1999.3"
         style="fill:#000000;fill-opacity:1;fill-rule:nonzero;stroke:none"
         id="path102" />
      <path
         d="m 30471.2,33596.8 536,-534.8 c 50.5,-51.7 117.5,-76.4 184.5,-76.4 67,0 134,24.7 184.6,76.4 l 536,534.8 c 215.1,216.3 223.3,565.4 17.6,780.5 -201.4,208.3 -521.4,221.2 -738.2,49.4 -543,430.4 -1216.2,-331.4 -720.5,-829.9"
         style="fill:#000000;fill-opacity:1;fill-rule:nonzero;stroke:none"
         id="path104" />
      <path
         d="m 40923,34245.7 c 147.2,0 266.3,119.5 266.3,266.7 0,147.2 -119.1,266.2 -266.3,266.2 -147.2,0 -266.6,-119 -266.6,-266.2 0,-147.2 119.4,-266.7 266.6,-266.7"
         style="fill:#000000;fill-opacity:1;fill-rule:nonzero;stroke:none"
         id="path106" />
      <path
         d="m 44407.1,24816.6 c 147.2,0 266.3,119.5 266.3,266.6 0,147.2 -119.1,266.3 -266.3,266.3 -147.1,0 -266.6,-119.1 -266.6,-266.3 0,-147.1 119.5,-266.6 266.6,-266.6"
         style="fill:#000000;fill-opacity:1;fill-rule:nonzero;stroke:none"
         id="path108" />
      <path
         d="m 37323.6,33427.5 c 147.2,0 266.6,119.5 266.6,266.7 0,147.2 -119.4,266.2 -266.6,266.2 -147.2,0 -266.3,-119 -266.3,-266.2 0,-147.2 119.1,-266.7 266.3,-266.7"
         style="fill:#000000;fill-opacity:1;fill-rule:nonzero;stroke:none"
         id="path110" />
      <path
         d="m 22689.9,37555.4 191.4,171.8 c 25.8,23.3 28,63.2 4.8,89.1 -23.3,26.1 -63.2,28.2 -89.1,4.8 l -191.3,-171.8 c -25.9,-23.3 -28.1,-63.2 -4.8,-89 23.1,-25.9 63,-28.2 89,-4.9"
         style="fill:#000000;fill-opacity:1;fill-rule:nonzero;stroke:none"
         id="path112" />
      <path
         d="m 27455.9,36525.8 c 147.2,0 266.6,119.4 266.6,266.6 0,147.2 -119.4,266.3 -266.6,266.3 -147.2,0 -266.3,-119.1 -266.3,-266.3 0,-147.2 119.1,-266.6 266.3,-266.6"
         style="fill:#000000;fill-opacity:1;fill-rule:nonzero;stroke:none"
         id="path114" />
      <path
         d="m 12883.1,36004 c 147.2,0 266.3,119.5 266.3,266.6 0,147.2 -119.1,266.3 -266.3,266.3 -147.2,0 -266.6,-119.1 -266.6,-266.3 0,-147.1 119.4,-266.6 266.6,-266.6"
         style="fill:#000000;fill-opacity:1;fill-rule:nonzero;stroke:none"
         id="path116" />
      <path
         d="m 13707.8,10610.6 c 0,147.2 -119.1,266.3 -266.3,266.3 -147.1,0 -266.6,-119.1 -266.6,-266.3 0,-147.2 119.5,-266.6 266.6,-266.6 147.2,0 266.3,119.4 266.3,266.6"
         style="fill:#000000;fill-opacity:1;fill-rule:nonzero;stroke:none"
         id="path118" />
      <path
         d="m 16511.9,12744.2 191.2,171.8 c 26,23.3 28.1,63.2 4.8,89 -23.4,26.2 -63.4,28.2 -89,4.8 l -191.2,-171.7 c -43,-38.7 -15.4,-110 42.1,-110 15,0 30,5.3 42.1,16.1"
         style="fill:#000000;fill-opacity:1;fill-rule:nonzero;stroke:none"
         id="path120" />
      <path
         d="m 37870.9,24330.1 c -31.2,15.4 -68.9,3.5 -84.9,-27.7 -15.7,-31 -3.3,-69.1 27.7,-84.8 220,-111.6 429.4,-249.3 622.7,-409.1 26.1,-21.7 66.1,-18.9 88.7,8.5 22.2,26.8 18.4,66.5 -8.4,88.8 -200.4,165.7 -417.6,308.4 -645.8,424.3"
         style="fill:#000000;fill-opacity:1;fill-rule:nonzero;stroke:none"
         id="path122" />
      <path
         d="m 43666.6,10298.5 c 0,-147.1 119.5,-266.6 266.7,-266.6 147.1,0 266.2,119.5 266.2,266.6 0,147.2 -119.1,266.3 -266.2,266.3 -147.2,0 -266.7,-119.1 -266.7,-266.3"
         style="fill:#000000;fill-opacity:1;fill-rule:nonzero;stroke:none"
         id="path124" />
      <path
         d="m 26341.2,13605.4 c 351.8,0 352.8,532.9 0,532.9 -147.2,0 -266.7,-119.1 -266.7,-266.3 0,-147.2 119.5,-266.6 266.7,-266.6"
         style="fill:#000000;fill-opacity:1;fill-rule:nonzero;stroke:none"
         id="path126" />
      <path
         d="m 18560.9,34074.3 c 192.6,159.5 401.9,297.1 622.4,409.2 31,15.8 43.4,53.7 27.5,84.7 -15.6,31 -53.7,43.4 -84.7,27.6 -228.7,-116.2 -445.9,-259 -645.8,-424.5 -26.7,-22.1 -30.5,-61.9 -8.2,-88.8 22.1,-26.7 61.7,-30.5 88.8,-8.2"
         style="fill:#000000;fill-opacity:1;fill-rule:nonzero;stroke:none"
         id="path128" />
      <path
         d="m 4947.4,13116.2 c 192.6,159.5 401.95,297.2 622.38,409.2 31.03,15.8 43.47,53.7 27.58,84.8 -15.64,31 -53.82,43.3 -84.72,27.6 -228.68,-116.3 -445.9,-259 -645.76,-424.5 -26.73,-22.2 -30.55,-62 -8.26,-88.7 22.03,-26.8 61.66,-30.7 88.78,-8.4"
         style="fill:#000000;fill-opacity:1;fill-rule:nonzero;stroke:none"
         id="path130" />
      <path
         d="m 35510.3,27260.6 c 193,159.8 402.5,297.5 622.5,409.1 31.1,15.7 43.5,53.8 27.7,84.8 -15.9,31.2 -53.5,43 -84.8,27.7 -228.3,-116 -445.6,-258.7 -645.9,-424.6 -26.7,-22.1 -30.5,-61.9 -8.3,-88.6 22.1,-26.9 61.7,-30.7 88.8,-8.4"
         style="fill:#000000;fill-opacity:1;fill-rule:nonzero;stroke:none"
         id="path132" />
      <path
         d="m 31069.3,30703.2 c -228.4,-116 -445.6,-258.7 -645.9,-424.6 -26.8,-22.2 -30.6,-61.9 -8.3,-88.7 22,-26.8 61.7,-30.7 88.8,-8.3 193,159.8 402.4,297.5 622.5,409.1 31,15.7 43.5,53.8 27.7,84.8 -15.8,31 -53.4,43 -84.8,27.7"
         style="fill:#000000;fill-opacity:1;fill-rule:nonzero;stroke:none"
         id="path134" />
      <path
         d="m 8973.99,34743 c 147.19,0 266.28,119.5 266.28,266.6 0,147.3 -119.09,266.3 -266.28,266.3 -147.17,0 -266.62,-119 -266.62,-266.3 0,-147.1 119.45,-266.6 266.62,-266.6"
         style="fill:#000000;fill-opacity:1;fill-rule:nonzero;stroke:none"
         id="path136" />
      <path
         d="m 42619,30051.8 c 108,89.4 222.5,172.9 340.3,248 29.5,18.7 38.1,57.7 19.4,87.1 -18.8,29.4 -57.9,37.6 -87.1,19.3 -122.3,-78 -241.1,-164.5 -353.2,-257.4 -64,-53.1 15.9,-150.2 80.6,-97"
         style="fill:#000000;fill-opacity:1;fill-rule:nonzero;stroke:none"
         id="path138" />
    </g>
  </g>
</svg>
