<svg width="518" height="107" viewBox="0 0 518 107" fill="none" xmlns="http://www.w3.org/2000/svg">
<path d="M116.942 0V81.7265H41.7405L14.6177 107V81.7265H0V0H116.942ZM7.30887 6.81054V20.4316H109.633V6.81054H7.30887ZM109.633 74.916V27.2422H7.30887V74.916H21.9266V90.5057L38.6571 74.916H109.633ZM73.0887 34.0527H102.324V68.1054H73.0887V34.0527ZM80.3976 61.2949H95.0154V40.8633H80.3976V61.2949ZM14.6177 40.8633H65.7799V47.6738H14.6177V40.8633ZM14.6177 54.4843H65.7799V61.2949H14.6177V54.4843Z" fill="white"/>
<path d="M182.616 43.912H163.992L160.792 53H153.176L169.112 8.456H177.56L193.496 53H185.816L182.616 43.912ZM180.568 37.96L173.336 17.288L166.04 37.96H180.568ZM204.137 13.064C202.814 13.064 201.705 12.616 200.809 11.72C199.913 10.824 199.465 9.71467 199.465 8.392C199.465 7.06933 199.913 5.96 200.809 5.064C201.705 4.168 202.814 3.72 204.137 3.72C205.417 3.72 206.505 4.168 207.401 5.064C208.297 5.96 208.745 7.06933 208.745 8.392C208.745 9.71467 208.297 10.824 207.401 11.72C206.505 12.616 205.417 13.064 204.137 13.064ZM207.721 17.736V53H200.425V17.736H207.721ZM224.596 22.856C225.663 21.064 227.071 19.6773 228.82 18.696C230.612 17.672 232.724 17.16 235.156 17.16V24.712H233.3C230.441 24.712 228.265 25.4373 226.772 26.888C225.321 28.3387 224.596 30.856 224.596 34.44V53H217.3V17.736H224.596V22.856ZM250.375 23.688V43.208C250.375 44.5307 250.673 45.4907 251.271 46.088C251.911 46.6427 252.977 46.92 254.471 46.92H258.951V53H253.191C249.905 53 247.388 52.232 245.639 50.696C243.889 49.16 243.015 46.664 243.015 43.208V23.688H238.855V17.736H243.015V8.968H250.375V17.736H258.951V23.688H250.375ZM269.387 13.064C268.064 13.064 266.955 12.616 266.059 11.72C265.163 10.824 264.715 9.71467 264.715 8.392C264.715 7.06933 265.163 5.96 266.059 5.064C266.955 4.168 268.064 3.72 269.387 3.72C270.667 3.72 271.755 4.168 272.651 5.064C273.547 5.96 273.995 7.06933 273.995 8.392C273.995 9.71467 273.547 10.824 272.651 11.72C271.755 12.616 270.667 13.064 269.387 13.064ZM272.971 17.736V53H265.675V17.736H272.971ZM325.238 17.16C328.011 17.16 330.486 17.736 332.662 18.888C334.881 20.04 336.609 21.7467 337.846 24.008C339.126 26.2693 339.766 29 339.766 32.2V53H332.534V33.288C332.534 30.1307 331.745 27.72 330.166 26.056C328.587 24.3493 326.433 23.496 323.702 23.496C320.971 23.496 318.795 24.3493 317.174 26.056C315.595 27.72 314.806 30.1307 314.806 33.288V53H307.574V33.288C307.574 30.1307 306.785 27.72 305.206 26.056C303.627 24.3493 301.473 23.496 298.742 23.496C296.011 23.496 293.835 24.3493 292.214 26.056C290.635 27.72 289.846 30.1307 289.846 33.288V53H282.55V17.736H289.846V21.768C291.041 20.3173 292.555 19.1867 294.39 18.376C296.225 17.5653 298.187 17.16 300.278 17.16C303.094 17.16 305.611 17.7573 307.83 18.952C310.049 20.1467 311.755 21.8747 312.95 24.136C314.017 22.0027 315.681 20.3173 317.942 19.08C320.203 17.8 322.635 17.16 325.238 17.16ZM381.37 34.504C381.37 35.8267 381.285 37.0213 381.114 38.088H354.17C354.383 40.904 355.429 43.1653 357.306 44.872C359.183 46.5787 361.487 47.432 364.218 47.432C368.143 47.432 370.917 45.7893 372.538 42.504H380.41C379.343 45.7467 377.402 48.4133 374.586 50.504C371.813 52.552 368.357 53.576 364.218 53.576C360.847 53.576 357.818 52.8293 355.13 51.336C352.485 49.8 350.394 47.6667 348.858 44.936C347.365 42.1627 346.618 38.9627 346.618 35.336C346.618 31.7093 347.343 28.5307 348.794 25.8C350.287 23.0267 352.357 20.8933 355.002 19.4C357.69 17.9067 360.762 17.16 364.218 17.16C367.546 17.16 370.511 17.8853 373.114 19.336C375.717 20.7867 377.743 22.8347 379.194 25.48C380.645 28.0827 381.37 31.0907 381.37 34.504ZM373.754 32.2C373.711 29.512 372.751 27.3573 370.874 25.736C368.997 24.1147 366.671 23.304 363.898 23.304C361.381 23.304 359.226 24.1147 357.434 25.736C355.642 27.3147 354.575 29.4693 354.234 32.2H373.754ZM391.494 53.448C390.171 53.448 389.062 53 388.166 52.104C387.27 51.208 386.822 50.0987 386.822 48.776C386.822 47.4533 387.27 46.344 388.166 45.448C389.062 44.552 390.171 44.104 391.494 44.104C392.774 44.104 393.862 44.552 394.758 45.448C395.654 46.344 396.102 47.4533 396.102 48.776C396.102 50.0987 395.654 51.208 394.758 52.104C393.862 53 392.774 53.448 391.494 53.448ZM411.284 22.92C412.521 21.2987 414.206 19.9333 416.34 18.824C418.473 17.7147 420.884 17.16 423.572 17.16C426.644 17.16 429.438 17.928 431.956 19.464C434.516 20.9573 436.521 23.0693 437.972 25.8C439.422 28.5307 440.148 31.6667 440.148 35.208C440.148 38.7493 439.422 41.928 437.972 44.744C436.521 47.5173 434.516 49.6933 431.956 51.272C429.438 52.808 426.644 53.576 423.572 53.576C420.884 53.576 418.494 53.0427 416.404 51.976C414.313 50.8667 412.606 49.5013 411.284 47.88V69.768H403.988V17.736H411.284V22.92ZM432.724 35.208C432.724 32.776 432.212 30.6853 431.188 28.936C430.206 27.144 428.884 25.8 427.22 24.904C425.598 23.9653 423.849 23.496 421.972 23.496C420.137 23.496 418.388 23.9653 416.724 24.904C415.102 25.8427 413.78 27.208 412.756 29C411.774 30.792 411.284 32.904 411.284 35.336C411.284 37.768 411.774 39.9013 412.756 41.736C413.78 43.528 415.102 44.8933 416.724 45.832C418.388 46.7707 420.137 47.24 421.972 47.24C423.849 47.24 425.598 46.7707 427.22 45.832C428.884 44.8507 430.206 43.4427 431.188 41.608C432.212 39.7733 432.724 37.64 432.724 35.208ZM461.315 35.4L477.571 53H467.715L454.659 37.832V53H447.363V5.64H454.659V33.16L467.459 17.736H477.571L461.315 35.4Z" fill="white"/>
</svg>
